<?xml version="1.0" standalone="no"?>
<!DOCTYPE svg PUBLIC "-//W3C//DTD SVG 1.1//EN" "http://www.w3.org/Graphics/SVG/1.1/DTD/svg11.dtd" >
<!--
2015-3-9: Created with FontForge (http://fontforge.org)
-->
<svg xmlns="http://www.w3.org/2000/svg">
<metadata>
Created by FontForge 20141020 at Mon Mar  9 15:46:08 2015
 By Jean-Claude Simpson
Copyright (c) 2015, Jean-Claude Simpson
</metadata>
<defs>
<font id="icons" horiz-adv-x="512" >
  <font-face 
    font-family="icons"
    font-weight="400"
    font-stretch="normal"
    units-per-em="512"
    panose-1="2 0 5 9 0 0 0 0 0 0"
    ascent="448"
    descent="-64"
    bbox="-0.49707 -65.9873 512.493 448.813"
    underline-thickness="25.6"
    underline-position="-51.2"
    unicode-range="U+F105-F124"
  />
    <missing-glyph />
    <glyph glyph-name="uniF107" unicode="&#xf107;" 
d="M0 414h512v-102.069h-512v102.069zM0 243.034h512v-102.068h-512v102.068zM0 72.0693h512v-102.069h-512v102.069z" />
    <glyph glyph-name="uniF10F" unicode="&#xf10f;" 
d="M511.656 363.765h-71.0684v71.0938h-35.4883v-71.0938h-71.0371v-35.5771h71.0371v-71.124h35.4883v71.124h71.0684v35.5771zM247.943 153.476v0c39.3965 -28.0244 52.1387 -53.9824 52.2617 -97.4219c0 -54.0449 -52.2617 -107.904 -146.938 -107.904
c-83.0107 0 -153.155 33.8516 -153.155 87.9268c0 54.9072 63.8965 107.904 147 107.904c9.04883 0 17.3594 0.369141 25.8545 0.369141c-11.3271 11.0684 -20.3457 24.7568 -20.3457 41.4658c0 9.89648 3.20117 19.6084 7.60254 28.1484
c-4.55469 -0.339844 -9.11035 0 -13.8506 0c-68.1445 0 -113.882 49.3574 -113.882 109.599c0 58.8848 63.0664 111.296 130.011 111.296h149.585l-33.4561 -35.5156h-47.4307c31.5479 0 48.2002 -44.7959 48.2002 -82.4697c0 -31.6318 -17.5137 -54.6924 -42.168 -74.084
c-24.1914 -18.8369 -28.7471 -26.8525 -28.7471 -42.8223c0 -13.6572 25.8545 -37.0264 39.459 -46.4912zM168.01 228.392v0c38.5049 -1.14062 64.3281 38.9688 57.5879 89.6836c-6.52539 50.6533 -43.0908 91.3486 -81.6875 92.3965
c-38.5352 1.17188 -64.3281 -37.5508 -57.6797 -88.2656c6.64844 -50.6221 43.1826 -92.7354 81.7793 -93.8145zM152.929 -27.8643v0c80.6709 0 108.741 34.0049 108.741 77.7832c0 5.30273 -0.645508 10.4199 -1.72363 15.4766
c-6.40137 24.7246 -28.6855 36.9023 -59.8955 58.7305c-11.3574 3.66797 -23.7305 5.82617 -37.1807 5.9502c-57.4023 0.677734 -108.742 -35.0537 -108.742 -77.8457c0 -43.8086 41.3975 -80.0947 98.8008 -80.0947z" />
    <glyph glyph-name="uniF10D" unicode="&#xf10d;" 
d="M426.772 163.293c-18.2275 0 -22.9189 -4.08301 -35.4434 -11.165c1.2627 -6.32324 12.8848 -12.8271 12.8848 -19.5488v-169.144h108.279v133.299c0 36.7119 -36.5615 66.5586 -85.7207 66.5586zM115.47 132.579c0 6.72168 7.36328 13.2256 8.62598 19.5488
c-12.4521 7.08203 -23.5684 11.165 -41.7598 11.165c-49.1943 0 -75.1455 -29.8467 -75.1455 -66.5586v-133.299h108.279v169.144zM122.833 344.578c0 2.74609 0.251953 5.34863 0.46875 8.02246c-11.7666 6.43164 -25.0127 10.3701 -39.2695 10.3701
c-45.9102 0 -83.1943 -37.3623 -83.1943 -83.2529c0 -45.8184 37.2842 -83.1445 83.1943 -83.1445c35.9492 0 66.3398 23.1621 77.8896 55.2129c-24.1104 23.668 -39.0889 56.5137 -39.0889 92.792zM420.275 362.971c-13.8594 0 -26.8525 -3.75781 -38.3311 -9.79199
c0.216797 -2.81836 0.397461 -5.74609 0.397461 -8.60059c0 -36.6758 -15.3398 -69.7744 -39.8105 -93.3701c11.6943 -31.7617 42.0488 -54.6348 77.7441 -54.6348c45.8389 0 83.123 37.3262 83.123 83.1445c0 45.8906 -37.2842 83.2529 -83.123 83.2529zM252.623 241.307
c56.9189 0 103.154 46.3604 103.154 103.271c0 56.9834 -46.2354 103.344 -103.154 103.344s-103.226 -46.3604 -103.226 -103.344c0 -56.9111 46.3066 -103.271 103.226 -103.271zM259.914 215.254c-56.4492 0 -108.352 -37.0732 -108.352 -82.6748v-169.144h216.559
v169.144c0 45.6016 -51.8652 82.6748 -108.207 82.6748z" />
    <glyph glyph-name="uniF10B" unicode="&#xf10b;" 
d="M255.64 447.757v0c140.96 0 255.68 -114.671 255.68 -255.62c0 -140.971 -114.72 -255.661 -255.68 -255.661c-140.981 0 -255.64 114.69 -255.64 255.661c0 140.949 114.658 255.62 255.64 255.62zM164.011 -26.5693v0
c28.2041 -11.8613 59.1699 -18.3652 91.6289 -18.3652c25.4639 0 49.9453 4.0293 72.9551 11.4736c-26.4863 -3.78418 -43.7695 43.7246 -54.4863 63.1123c-8.77441 15.9727 -14.1328 -0.224609 -40.6807 14.623c-16.6074 9.42773 -33.7061 18.9785 -34.8926 35.6465
c-1.53418 21.5752 -7.66992 30.6152 1.61621 45.4834c1.55371 2.41309 2.41309 11.1865 3.27246 12.1064c6.97363 7.75098 7.26074 5.39941 14.3984 9.71484c11.6582 7.19922 21.0459 7.3418 35.5879 0.265625c-2.65918 -5.05176 7.30176 -2.16797 5.84961 -7.3418
c13.1709 -4.21289 44.8525 -14.1523 41.7441 7.3418c12.6602 -1.9834 48.4521 0.164062 42.6025 27.2207c-16.6484 -1.84082 -25.2383 16.3203 -29.5537 30.8613c-0.225586 -3.88574 -3.45703 -12.332 -2.65918 -18.5088
c-8.32422 2.41309 -8.54883 -0.53125 -13.499 7.89453c-11.4121 -3.29297 -10.8604 -23.6826 -22.8867 -13.3545c8.61133 5.1123 3.76367 5.27637 6.2998 13.9678c-12.1084 7.66895 -23.3369 5.07227 -20.9229 -10.9209c-1.02344 5.31738 -4.92969 17.0361 -13.458 15.9932
c-13.6836 -1.63672 -6.13574 -20.1855 -10.8809 -27.957c-11.8633 -19.4492 -11.9854 -4.58105 -33.2363 -4.2334c-9.14258 34.8896 1.61621 10 20.085 29.2041c-3.10938 8.40527 -10.2676 12.9658 -18.3262 14.3564c6.79102 5.48145 13.3359 6.91309 17.835 12.9463
c-6.33984 -0.614258 -14.0508 1.73828 -20.2891 0.899414c1.69727 4.17188 0.40918 8.97852 1.69727 12.9863c-11.3301 0.0820312 -11.4326 -9.05957 -20.1045 -13.1289c-1.06348 9.50977 3.84473 15.2559 13.2734 16.1973
c-5.8291 8.79395 -5.99219 19.5713 6.83105 20.0625c-1.10352 -5.17383 1.90234 -12.5771 0.71582 -17.752c11.9248 1.5957 18.5918 -6.13477 15.6465 -17.9766c0.552734 0.900391 3.45703 2.18848 4.43848 1.7998c0.756836 9.40723 21.7002 33.7441 25.4229 37.0371
c39.085 -14.377 3.47754 15.584 3.14941 15.1543c-20.9229 -25.543 -17.3027 -8.62988 -23.1729 -10.5117c-13.2324 16.4424 5.1543 32.1289 13.5195 48.04c7.69043 14.5615 19.4912 35.5029 41.1719 29.7568c0.71582 -4.84766 -15.1973 -14.1934 -14.4805 -19.1221
c7.91504 -0.879883 28.4082 -8.03711 35.9961 -8.67188c-1.30859 10.3076 9.71582 27.4053 20.3301 25.4619c-1.55371 -2.9043 -2.41309 -7.91406 -4.0293 -10.6963c0.634766 -0.654297 6.83203 -9.03906 7.48633 -9.65234c8.63086 5.74707 7.28125 24.4795 21.8438 21.126
c-0.123047 3.31348 1.24707 7.66895 0.817383 10.9004c2.43457 -2.67871 8.7334 -6.31934 10.7588 -8.73242c-0.306641 8.36426 -1.28906 15.6045 -1.61621 24.8281c5.05176 -1.92285 12.4355 -0.18457 17.8145 -1.55469
c-0.777344 6.62598 -0.756836 13.293 1.86133 18.5693c1.7998 -0.0205078 3.49707 -0.163086 5.1543 -0.327148c-1.16602 0.797852 -2.41406 1.5957 -3.62012 2.35254c-0.143555 -0.246094 -0.327148 -0.491211 -0.450195 -0.736328
c-0.450195 0 -0.900391 0.101562 -1.34961 0.101562c0.12207 0.573242 0.306641 1.06348 0.572266 1.45215c-36.5488 23.0283 -79.7861 36.5059 -126.152 36.5059c-53.5254 0 -102.919 -17.915 -142.617 -47.877l38.3486 16.2998
c11.208 -4.04883 33.2969 -7.11719 40.7832 1.63672c-6.0957 -13.9482 -15.4424 -27.3438 -22.0898 -40.2686c-2.6582 -5.29688 -7.97656 -13.5391 -9.5918 -19.1016c-2.20898 -7.32129 0.327148 -17.5469 -3.53809 -23.7852
c-7.56836 -11.9844 -25.8115 -19.96 -33.8701 -32.2715c-8.01758 -12.21 -12.4766 -33.4385 -31.7432 -29.1436c-2.14746 16.7705 1.92285 97.9209 -22.1504 57.2432c-9.22363 -15.666 1.04395 -34.1738 -4.78516 -50.7393
c-7.54785 -21.1055 -19.4717 -11.6367 -17.6514 6.42188c-2.35156 -15.5225 -5.11328 -30.166 -13.2939 -43.3984c-10.7783 -17.4648 -13.499 -22.4141 -5.89062 -43.7852c0.123047 20.5938 7.34277 38.918 12.9668 57.2832
c8.26367 0.981445 42.0107 -63.9717 39.4541 -75.3623c-4.80664 3.43555 -13.8467 21.4941 -18.04 27.4043c-7.01465 -7.42383 -1.26758 -24.9502 -1.26758 -35.3604c-3.33398 -0.858398 -6.17676 -7.68945 -9.49023 -8.56836
c-2.12695 -23.2744 -14.1533 -30.2686 -1.30859 -53.3779c9.95996 -17.9971 32.0283 -22.7832 36.6924 -43.582c16.3613 -5.48047 103.716 -57.0996 77.4541 -75.5674zM401.1 5.06934v0c44.832 34.9307 76.8203 85.5059 87.6201 143.588
c-0.205078 0 -0.429688 0.0410156 -0.573242 -0.123047c-9.26465 -6.44238 -7.05566 -2.43359 -13.3555 -13.375c-2.98633 -5.17383 0.0615234 -14.459 -2.94531 -20.4512c-17.7324 5.99219 -10.1035 27.834 -22.4775 39.001
c-3.76367 3.35352 -16.2393 7.95508 -20.6572 7.05566c-20.5557 -4.15234 -1.49316 -8.44629 -0.0820312 -11.6172c3.53809 -8.48633 13.7236 0.225586 9.75586 -16.4014c-1.53418 -6.42188 -25.9541 -10.001 -30.3516 -13.2119
c-10.7178 -7.99609 -38.042 -5.58301 -34.9131 -21.9639c5.78809 4.62109 17.9775 -4.86816 26.6504 -5.99219c-1.24805 -19.8584 -30.0664 -13.7236 -39.168 -29.9619c-7.99609 -14.1719 17.6924 -37.5273 -3.14941 -40.1865
c1.14551 -15.7881 -0.797852 -42.3955 -14.2148 -49.5527c16.7715 6.6875 32.5615 15.2158 47.1846 25.3184c4.23438 9.24414 10.4111 19.9189 12.5176 29.4697l-1.125 -2.31055c0.899414 2.78125 3.66113 7.54688 6.99512 9.38672
c3.72168 -4.31445 -1.35059 -18.5488 -7.71094 -28.6719zM345.897 356.503c-0.368164 2.33203 0.224609 5.93066 0 8.54883c-12.21 4.41699 -9.94043 17.9766 -6.83105 27.6299c-9.42871 0.265625 -14.7061 -8.40625 -15.9121 -15.707l4.66309 9.28516
c2.76074 -14.459 -1.69824 -27.7725 18.0801 -29.7568zM234.88 370.369c-0.71582 3.7832 1.45215 9.30566 0.736328 13.1914c5.01074 -1.18652 11.0439 0.510742 15.5234 -1.67773c-1.84082 1.67773 -2.39258 4.5 -6.21777 7.05566
c3.23145 8.11914 -1.73828 10.2461 -2.69922 13.4775l2.31055 4.64258c-5.44043 -2.47461 -20.3916 -6.81055 -23.2754 -13.7842c-4.80566 -11.4736 2.57715 -22.8643 13.6221 -22.9053zM156.873 300.691c0.551758 -0.0615234 1.20605 -0.12207 1.86133 -0.224609
c0.0605469 0.0615234 0.183594 0.163086 0.245117 0.224609h-2.10645zM158.734 300.467c-4.64355 -5.31738 -15.1152 -4.19238 -15.79 -11.207c3.94727 -1.24805 22.6416 -4.27441 26.1797 -1.10449c6.89258 6.11426 -3.53809 11.166 -10.3896 12.3115z" />
    <glyph glyph-name="uniF106" unicode="&#xf106;" 
d="M411.279 104.754c-25.3232 0 -47.9707 -11.2832 -63.2852 -29.0469l-164.276 91.4072c2.44336 7.85645 3.77051 16.2256 3.77051 24.9209c0 8.64844 -1.32715 17.041 -3.77051 24.8975l164.276 91.4297c15.3145 -17.7637 37.9619 -29.0703 63.2852 -29.0703
c46.2705 0 83.7207 37.5332 83.7207 83.8779c0 46.3438 -37.4502 83.8301 -83.7207 83.8301c-46.248 0 -83.7441 -37.4863 -83.7441 -83.8301c0 -8.67285 1.30371 -17.0645 3.77051 -24.9209l-164.276 -91.4307c-15.3613 17.7637 -38.0088 29.0938 -63.332 29.0938
c-46.2246 0 -83.6973 -37.5557 -83.6973 -83.877s37.4727 -83.8545 83.6973 -83.8545c25.3232 0 47.9707 11.2832 63.332 29.0244l164.276 -91.3838c-2.4668 -7.87988 -3.77051 -16.2256 -3.77051 -24.9443c0 -46.3213 37.4961 -83.877 83.7441 -83.877
c46.2705 0 83.7207 37.5557 83.7207 83.877c0 46.2979 -37.4502 83.877 -83.7207 83.877z" />
    <glyph glyph-name="uniF114" unicode="&#xf114;" 
d="M255.2 425.367c128.699 0 233.399 -104.707 233.399 -233.401c0 -128.693 -104.7 -233.389 -233.399 -233.389c-128.711 0 -233.423 104.695 -233.423 233.389c0 128.694 104.712 233.401 233.423 233.401zM255.2 447.641c-141.21 0 -255.697 -114.459 -255.697 -255.675
s114.487 -255.675 255.697 -255.675s255.674 114.459 255.674 255.675s-114.464 255.675 -255.674 255.675zM175.319 80.5518v217.787l217.809 -108.894l-217.809 -108.894z" />
    <glyph glyph-name="uniF110" unicode="&#xf110;" 
d="M183.943 267.162h97.0898v-32.1016c12.4512 17.6973 41.6201 38.8652 94.3623 38.8652c65.0176 0 110.625 -40.6533 110.625 -129.529v-173.478h-98.9443v161.737c0 38.8311 -14.2695 65.3955 -50.1533 65.3955c-27.2803 0 -43.5088 -17.873 -50.1191 -35.1865
c-2.58789 -5.4668 -3.84668 -14.8242 -3.84668 -23.375v-168.571h-99.0137v296.243zM31.3135 267.162h98.6982v-296.243h-98.6982v296.243zM26.417 361.12c0 27.8613 24.3076 50.4658 54.2461 50.4658c29.833 0 54.1406 -22.6045 54.1406 -50.4658
c0 -27.9668 -24.3076 -50.5713 -54.1406 -50.5713c-29.9385 0 -54.2461 22.6045 -54.2461 50.5713z" />
    <glyph glyph-name="uniF123" unicode="&#xf123;" 
d="M256 448v0c141.385 0 256 -114.615 256 -256s-114.615 -256 -256 -256s-256 114.615 -256 256s114.615 256 256 256zM256 0v0c106.039 0 192 85.9609 192 192s-85.9609 192 -192 192s-192 -85.9609 -192 -192s85.9609 -192 192 -192z" />
    <glyph glyph-name="uniF11E" unicode="&#xf11e;" 
d="M159.813 255.994l256.543 -255.769l-64.125 -63.9414l-256.588 255.768l64.1699 63.9424zM416.311 383.667l-256.497 -255.813l-64.124 63.9424l256.497 255.812l64.124 -63.9414z" />
    <glyph glyph-name="uniF11F" unicode="&#xf11f;" 
d="M258.117 36.8301l48.2432 48.2305l-193.146 193.126l-48.2783 -48.2988l193.181 -193.058zM209.839 85.0947l48.2783 -48.2646l193.077 193.058l-48.2432 48.2988l-193.112 -193.092zM426.714 4.2666h-341.428v102.4h-68.2861v-170.667h478v170.667h-68.2861v-102.4z
M221.857 448h68.2852v-375.467h-68.2852v375.467z" />
    <glyph glyph-name="uniF10A" unicode="&#xf10a;" 
d="M362.831 75.4541c-3.63379 0 -7.28516 1.41699 -10.0645 4.17871l-201.014 201.013c-5.5957 5.57715 -5.5957 14.624 0 20.2012c5.57715 5.57715 14.624 5.57715 20.1836 0l201.013 -200.995c5.57715 -5.59473 5.57715 -14.6416 0 -20.2188
c-2.79785 -2.76172 -6.44922 -4.17871 -10.1182 -4.17871zM161.854 75.4541c-3.66992 0 -7.32129 1.41699 -10.1006 4.17871c-5.5957 5.57715 -5.5957 14.624 0 20.2188l201.014 200.995c5.55859 5.57715 14.6055 5.57715 20.1826 0s5.57715 -14.624 0 -20.2012
l-201.013 -201.013c-2.79785 -2.76172 -6.44922 -4.17871 -10.083 -4.17871zM256.32 -64.1377c-141.101 0 -255.858 114.795 -255.858 255.84c0 141.082 114.758 255.858 255.858 255.858c141.063 0 255.804 -114.776 255.804 -255.858
c0 -141.045 -114.74 -255.84 -255.804 -255.84v0zM256.32 427.214c-129.91 0 -235.566 -105.639 -235.566 -235.512c0 -129.837 105.656 -235.476 235.566 -235.476c129.818 0 235.475 105.639 235.475 235.476c0 129.873 -105.656 235.512 -235.475 235.512v0z" />
    <glyph glyph-name="uniF116" unicode="&#xf116;" 
d="M304.943 448v0l142.057 -144.491v-367.509h-382v512h239.943zM86.8691 -40.1865v0h336.256v333.396h-131.312v128.715l-204.979 -0.893555zM136.625 31.2559h238.75v-35.7207h-238.75v35.7207zM136.625 102.697h238.75v-35.7207h-238.75v35.7207zM136.625 174.14h238.75
v-35.7207h-238.75v35.7207zM136.625 245.581h238.75v-35.7207h-238.75v35.7207z" />
    <glyph glyph-name="uniF109" unicode="&#xf109;" 
d="M319.994 288.187l-255.769 -256.543l-63.9414 64.125l255.768 256.588l63.9424 -64.1699zM447.667 31.6895l-255.813 256.497l63.9424 64.124l255.812 -256.497l-63.9414 -64.124z" />
    <glyph glyph-name="uniF112" unicode="&#xf112;" 
d="M459.444 299.953c0.237305 -4.67383 0.296875 -9.34863 0.296875 -14.1123c0 -144.251 -105.631 -310.712 -298.701 -310.712c-59.2949 0 -114.458 18.1611 -160.942 49.0664c8.23242 -0.983398 16.5547 -1.54883 25.1445 -1.54883
c49.1885 0 94.3955 17.5068 130.27 46.8037c-45.9502 0.892578 -84.707 32.4229 -98.0518 75.832c6.41992 -1.28027 13.0186 -1.93555 19.8545 -1.93555c9.48047 0 18.7539 1.31055 27.6113 3.81152c-48.0898 9.97363 -84.2607 54.127 -84.2607 107.063
c0 0.447266 0 0.893555 0.0595703 1.37012c14.0879 -8.1582 30.3457 -13.1602 47.4951 -13.6963c-28.2061 19.6211 -46.7227 53.0264 -46.7227 90.8975c0 20.0078 5.23047 38.8242 14.2666 54.9014c51.7744 -66.0664 129.11 -109.476 216.372 -114.09
c-1.7832 8.03809 -2.7041 16.3447 -2.7041 24.8301c0 60.4395 46.96 109.298 104.977 109.298c30.1973 0 57.4512 -13.3389 76.6514 -34.4775c23.8076 4.82324 46.3955 13.9336 66.6953 26.4385c-7.90625 -25.5752 -24.5498 -46.8926 -46.2168 -60.4395
c21.3105 2.67969 41.4316 8.51465 60.3047 17.2383c-13.999 -21.8828 -31.9209 -41.1162 -52.3984 -56.5391z" />
    <glyph glyph-name="uniF121" unicode="&#xf121;" 
d="M0 448v0h512v-512h-512v512zM480 -32v0v448h-448v-448h448z" />
    <glyph glyph-name="uniF11D" unicode="&#xf11d;" 
d="M365.714 320.154v0h146.286v-366.154h-512v366.154h146.286v103.182l-0.0732422 6.66406h219.429l0.0722656 -6.66406v-103.182zM182.857 393.385v-73.2305h146.285v73.2305h-146.285zM73.1426 246.923v-219.692h365.715v219.692h-365.715z" />
    <glyph glyph-name="uniF10C" unicode="&#xf10c;" 
d="M253.434 125.606l-252.396 181.763v-270.125h509.413v270.125l-257.018 -181.763zM511.804 346.354h-512.118l253.779 -176.725l258.339 176.725z" />
    <glyph glyph-name="uniF118" unicode="&#xf118;" 
d="M192.006 95.8135l255.769 256.543l63.9414 -64.125l-255.768 -256.588l-63.9424 64.1699zM64.333 352.311l255.813 -256.497l-63.9424 -64.124l-255.812 256.497l63.9414 64.124z" />
    <glyph glyph-name="uniF124" unicode="&#xf124;" 
d="M255.134 437v0c135.739 0 246.174 -110.435 246.174 -246.154c0 -135.759 -110.435 -246.153 -246.174 -246.153c-135.719 0 -246.134 110.395 -246.134 246.153c0 135.72 110.415 246.154 246.134 246.154zM266.221 319.673v0h82.8652
c-18.8252 59.0771 -43.4805 90.6641 -82.8652 96.9453v-96.9453zM355.033 299.98v0h-88.8125v-98.4609h102.164c-0.571289 39.3848 -5.29785 59.0771 -13.3516 98.4609zM246.528 416.618v0c-39.3848 -6.28125 -66.501 -37.8682 -85.3262 -96.9453h85.3262v96.9453z
M246.528 299.98v0h-91.2734c-8.05469 -39.3838 -12.7803 -59.0762 -13.3516 -98.4609h104.625v98.4609zM122.802 201.52v0c0.532227 39.3848 4.88379 59.0771 12.3467 98.4609h-80.6006c-15.6553 -39.3838 -24.7725 -59.0762 -25.875 -98.4609h94.1289zM122.959 181.827v0
h-93.9912c1.96973 -39.3848 12.0713 -78.7695 28.6719 -98.4619h78.9473c-7.93652 39.3848 -12.6826 59.0771 -13.6279 98.4619zM142.041 181.827v0c1.04395 -39.3848 6.28223 -59.0771 14.8281 -98.4619h89.6592v98.4619h-104.487zM246.528 63.6729v0h-83.2588
c18.9639 -59.0762 43.874 -92.5732 83.2588 -98.6387v98.6387zM266.221 -34.9658v0c39.3848 6.06543 61.834 39.5625 80.7979 98.6387h-80.7979v-98.6387zM266.221 83.3652v0h87.1982c8.5459 39.3848 13.7842 59.0771 14.8281 98.4619h-102.026v-98.4619zM387.329 181.827v0
c-0.925781 -39.3848 -5.69141 -59.0771 -13.6279 -98.4619h78.9473c16.6201 19.6924 26.7021 59.0771 28.6719 98.4619h-93.9912zM387.486 201.52v0h94.1094c-1.08301 39.3848 -10.2002 59.0771 -25.8359 98.4609h-80.6211
c7.46387 -39.3838 11.8154 -59.0762 12.3477 -98.4609zM444.082 319.673v0c-29.4795 39.3848 -74.083 77.5098 -126.386 92.5342c21.7402 -21.1494 39.6406 -53.1494 51.9287 -92.5342h74.457zM192.592 412.207v0c-52.3027 -15.0244 -96.9062 -53.1494 -126.386 -92.5342
h74.457c12.2881 39.3848 30.1885 71.3848 51.9287 92.5342zM70.2041 63.6729v0c29.4395 -39.3838 72.3691 -72.5654 122.388 -86.9219c-20.6973 20.126 -37.9082 47.5381 -50.1172 86.9219h-72.2705zM317.696 -23.249v0c50.0186 14.3564 92.9482 47.5381 122.388 86.9219
h-72.2705c-12.209 -39.3838 -29.4199 -66.7959 -50.1172 -86.9219z" />
    <glyph glyph-name="uniF10E" unicode="&#xf10e;" 
d="M295.03 -65.9873h-97.8467v257.445h-65.25v88.7266l65.25 0.0302734l-0.180664 52.3145c0 72.252 19.9727 116.284 106.492 116.284h71.9082v-88.6963h-44.9766c-33.6494 0 -35.3369 -12.3486 -35.3369 -35.5391l-0.0595703 -44.3633h80.7949l-9.51953 -88.7568h-71.2158
l-0.0595703 -257.445z" />
    <glyph glyph-name="uniF115" unicode="&#xf115;" 
d="M448 416h64v-256h-64v256zM491.648 349.792l-45.248 45.248l-260 -263.521l45.248 -45.2158l260 263.488zM256 416h256v-64h-256v64zM384 32h-320v256h160v64h-224v-384h448v160h-64v-96z" />
    <glyph glyph-name="uniF111" unicode="&#xf111;" 
d="M154.812 41.418c0 -34.3086 -27.7129 -62.1436 -61.8857 -62.1436c-34.2324 0 -61.9268 27.835 -61.9268 62.1436c0 34.3584 27.6934 62.1543 61.9268 62.1543c34.1729 0 61.8857 -27.7959 61.8857 -62.1543zM332.555 -24.6201h-83.1709
c0 150.591 -117.641 204.031 -218.384 204.031v83.5059c150.107 0 301.555 -88.9033 301.555 -287.537zM407.459 -24.2783c0 235.431 -199.035 356.772 -376.459 356.772v83.5068c211.756 0 459.817 -149.325 459.817 -440.866l-83.3584 0.587891z" />
    <glyph glyph-name="uniF113" unicode="&#xf113;" 
d="M506.997 294.035v0s5.11523 -41.502 5.11523 -83.0039v-38.9082c0 -41.502 -5.11523 -83.0039 -5.11523 -83.0039s-5.00586 -35.3418 -20.3633 -50.9043c-19.4775 -20.4268 -41.3105 -20.5283 -51.3232 -21.7236c-71.6777 -5.1875 -179.311 -5.35059 -179.311 -5.35059
s-133.176 1.21777 -174.155 5.15234c-11.3994 2.14062 -36.9951 1.49512 -56.4795 21.9219c-15.3584 15.5625 -20.3555 50.9043 -20.3555 50.9043s-5.12305 41.502 -5.12305 83.0039v38.9082c0 41.502 5.12305 83.0039 5.12305 83.0039s4.99707 35.3418 20.3555 50.9053
c19.4844 20.4268 41.3105 20.5273 51.3232 21.7236c71.6807 5.1875 179.199 5.1875 179.199 5.1875h0.222656s107.522 0 179.2 -5.1875c10.0127 -1.19629 31.8457 -1.29688 51.3232 -21.7236c15.3574 -15.5635 20.3633 -50.9053 20.3633 -50.9053zM174.036 82.0723v0
l209.964 109.118l-210 109.882z" />
    <glyph glyph-name="uniF105" unicode="&#xf105;" 
d="M348.375 169.45v0l163.625 -163.413l-70.1221 -70.0371l-163.668 163.392l23.4238 23.3389l-41.2578 41.2158c-29.248 -23.5518 -64.4473 -36.0527 -100.073 -36.0527c-41.0029 0 -82.0479 15.6162 -113.343 46.8691c-62.6133 62.5283 -62.6133 163.84 0 226.39
c31.2949 31.2529 72.2979 46.8477 113.343 46.8477c40.9805 0 82.0469 -15.6377 113.321 -46.9121c58.751 -58.6025 61.6309 -151.019 10.2188 -213.888l41.1084 -41.1094zM161.692 159.563v0c33.8721 0 65.7246 13.1738 89.6875 37.1182
c49.4375 49.4199 49.3945 129.807 -0.0419922 179.247c-23.9424 23.9443 -55.8164 37.1396 -89.6455 37.1396c-33.8936 0 -65.7461 -13.1953 -89.667 -37.0967c-49.458 -49.4199 -49.458 -129.828 0 -179.29c23.9639 -23.9443 55.8154 -37.1182 89.667 -37.1182z" />
    <glyph glyph-name="uniF11A" unicode="&#xf11a;" 
d="M196.421 188.665l241.323 -241.665l60.3301 60.416l-241.322 241.666l-60.3311 -60.417zM74.085 -53l241.323 241.665l-60.3311 60.417l-241.322 -241.666l60.3301 -60.416zM0 417h512v-85.4541h-512v85.4541z" />
    <glyph glyph-name="uniF11B" unicode="&#xf11b;" 
d="M512.064 256h-192v192h-128.064v-192h-192v-128h192v-192h128.064v192h192v128z" />
    <glyph glyph-name="uniF108" unicode="&#xf108;" 
d="M56 448h402v-80h-402v80zM56 314h402v-80h-402v80zM56 180h402v-80h-402v80zM57.6611 -62v107.642h21.0674l19.4219 -52.998l7.07715 -20.4092h0.658203l6.91309 20.4092l19.0918 52.998h21.0674v-107.642h-17.9404v49.2119c0 10.04 1.48145 24.3594 2.46875 34.2354
h-0.658203l-8.72266 -24.5244l-18.5986 -48.8828h-8.8877l-18.5986 48.8828l-8.55859 24.5244h-0.65918c0.988281 -9.87598 2.46973 -24.1953 2.46973 -34.2354v-49.2119h-17.6113zM180.435 -62v107.642h64.8486v-16.1299h-45.7559v-27.4863h38.6787v-16.1299h-38.6787
v-31.7656h47.4014v-16.1299h-66.4941zM269.139 -62v107.642h19.5869l33.5762 -60.5693l11.0273 -22.8779h0.658203c-0.823242 11.0273 -2.46875 24.6885 -2.46875 36.7041v46.7432h18.2695v-107.642h-19.5859l-33.5762 60.5693l-11.0283 22.8779h-0.658203
c0.823242 -11.3574 2.46875 -24.3594 2.46875 -36.375v-47.0723h-18.2695zM376.771 -14.7627v60.4043h19.0928v-61.8857c0 -23.3721 8.72363 -31.1074 21.7256 -31.1074c13.167 0 22.3848 7.73535 22.3848 31.1074v61.8857h18.2695v-60.4043
c0 -35.3867 -15.6367 -49.2119 -40.6543 -49.2119c-24.8525 0 -40.8184 13.8252 -40.8184 49.2119z" />
    <glyph glyph-name="uniF122" unicode="&#xf122;" 
d="M256 448v0c141.385 0 256 -114.615 256 -256s-114.615 -256 -256 -256s-256 114.615 -256 256s114.615 256 256 256zM256 0v0c106.039 0 192 85.9609 192 192s-85.9609 192 -192 192s-192 -85.9609 -192 -192s85.9609 -192 192 -192zM160 192v0
c0 53.0195 42.9805 96 96 96s96 -42.9805 96 -96s-42.9805 -96 -96 -96s-96 42.9805 -96 96z" />
    <glyph glyph-name="uniF117" unicode="&#xf117;" 
d="M352.187 128.006l-256.543 255.769l64.125 63.9414l256.588 -255.768l-64.1699 -63.9424zM95.6895 0.333008l256.497 255.813l64.124 -63.9424l-256.497 -255.812l-64.124 63.9414z" />
    <glyph glyph-name="uniF120" unicode="&#xf120;" 
d="M0 448v0h512v-512h-512v512zM480 -32v0v448h-448v-448h448zM384 336v0l64 -64l-224 -224l-160 160l64 64l96 -96z" />
    <glyph glyph-name="uniF11C" unicode="&#xf11c;" 
d="M0 140v103h512v-103h-512z" />
    <glyph glyph-name="uniF119" unicode="&#xf119;" 
d="M316.579 192.335l-241.323 241.665l-60.3301 -60.416l241.322 -241.666l60.3311 60.417zM436.915 434l-241.323 -241.665l60.3311 -60.417l241.322 241.666l-60.3301 60.416zM0 49.4541h512v-82.8906h-512v82.8906z" />
  </font>
</defs>
</svg>
